# xmcd
#
# Track frame offsets: 
#        150
#        27978
#        49730
#        81366
#        110614
#        139794
#        164278
#        185570
#        211805
#        229670
#        263783
#        295134
#        313670
#
# Disc length: 4505 seconds
#
# Revision: 4
# Processed by: cddbd v1.5.2PL0 Copyright (c) Steve Scherf et al.
# Submitted via: ExactAudioCopy v0.99pb5
#
DISCID=b811970d
DTITLE=Mark Whitfield - True Blue
DYEAR=1994
DGENRE=Jazz
TTITLE0=Blues For Davis Alexander
TTITLE1=Save Your Love For Me
TTITLE2=Immanuel The Redeemer
TTITLE3=Quik Pik's Blues
TTITLE4=Mr. Syms
TTITLE5=Berkshire Blues
TTITLE6=Blues For Baby Boy
TTITLE7=Girl Talk
TTITLE8=Ba-lue Bolivar Ba-lues-are
TTITLE9=Psalm 91
TTITLE10=The Mystery Of Love Everlasting
TTITLE11=Blues For Alice
TTITLE12=John and Mamie
EXTD=Mark Whitfield, guitar\nKenny Kirkland, piano\nRodney Whitaker, b
EXTD=ass\nJeff Watts, drums\nBranford Marsalis, soprano sax (3), tenor
EXTD=sax (7]\nNicholas Payton, trumpet (4,7,13)
EXTT0=Mark Whitfield
EXTT1=Mark Whitfield
EXTT2=Mark Whitfield
EXTT3=Mark Whitfield
EXTT4=Mark Whitfield
EXTT5=Mark Whitfield
EXTT6=Mark Whitfield
EXTT7=Mark Whitfield
EXTT8=Mark Whitfield
EXTT9=Mark Whitfield
EXTT10=Mark Whitfield
EXTT11=Mark Whitfield
EXTT12=Mark Whitfield
PLAYORDER=
